<?xml version="1.0" encoding="utf-8"?>
<!-- Generator: Adobe Illustrator 17.0.0, SVG Export Plug-In . SVG Version: 6.00 Build 0)  -->
<!DOCTYPE svg PUBLIC "-//W3C//DTD SVG 1.1//EN" "http://www.w3.org/Graphics/SVG/1.1/DTD/svg11.dtd">
<svg version="1.1" id="Layer_1" xmlns="http://www.w3.org/2000/svg" xmlns:xlink="http://www.w3.org/1999/xlink" x="0px" y="0px"
	 width="22px" height="22px" viewBox="0 0 22 22" enable-background="new 0 0 22 22" xml:space="preserve">
<g>
	<path fill="#0060A9" d="M21.2,11.062c0,5.521-4.547,10.063-10.073,10.063c-5.525,0-10.073-4.543-10.073-10.063
		C1.055,5.543,5.496,1,11.127,1C16.546,1,21.2,5.543,21.2,11.062z"/>
	<path fill="#FFFFFF" d="M4.512,4.981c5.542,0.044,4.998-0.012,5.063,0.054c0.097,0,4.425,7.453,4.425,7.518
		c0,0.032-0.032-2.649-0.032-6.002c0-0.388-1.066-1.517-1.034-1.517c1.582,0,3.649,0.032,3.649,0.032
		c-0.775,0.903-0.929,0.83-0.936,1.388c-0.022,1.796-0.042,5.113,0,8.84c0.006,0.561,0.42,0.775,1.098,1.744h-5.071
		c-1.647-2.743-4.666-7.889-4.65-7.873c0.023,0.024-0.065,3.227,0.032,5.808c0.032,0.852,0.42,1.128,1.131,1.904
		c0,0,0.818-0.023-3.973,0.032c1.453-0.776,1.26-1.743,1.259-1.774c-0.052-3.567-0.01-6.616-0.01-8.584
		c0-0.322-0.023-0.291-1.023-1.517"/>
</g>
</svg>
